<?xml version="1.0" encoding="utf-8"?>
<!-- Generator: Adobe Illustrator 22.1.0, SVG Export Plug-In . SVG Version: 6.00 Build 0)  -->
<svg version="1.1" id="Layer_1" xmlns="http://www.w3.org/2000/svg" xmlns:xlink="http://www.w3.org/1999/xlink" x="0px" y="0px"
	 viewBox="0 0 666 532.8" style="enable-background:new 0 0 666 532.8;" xml:space="preserve">
<style type="text/css">
	.st0{fill:#E31B23;}
	.st1{fill:#B5121B;}
	.st2{fill:#231F20;}
</style>
<g>
	<path class="st0" d="M269.4,96.2h28.1c0.6,0,1.2-0.5,1.3-1.1l5-28.1c0.1-0.6-0.3-1.1-0.9-1.1h-28.1c-0.6,0-1.1,0.5-1.3,1.1l-5,28.1
		C268.4,95.7,268.8,96.2,269.4,96.2"/>
	<path class="st0" d="M298.4,438.9h-28.1c-0.6,0-1.1,0.5-1.3,1.1l-5,28.1c-0.1,0.6,0.3,1.1,0.9,1.1h28.1c0.6,0,1.2-0.5,1.3-1.1
		l5-28.1C299.4,439.4,299,438.9,298.4,438.9"/>
	<path class="st0" d="M235.9,77.2l-4.4,24.8h29.7c0.7,0,1.3-0.5,1.4-1.2l5.7-32.1c0.1-0.7-0.3-1.2-1-1.2h-32.1
		c-0.7,0-1.3,0.5-1.4,1.2l-1.3,7.2h2.3C235.6,75.8,236.1,76.4,235.9,77.2"/>
	<path class="st0" d="M234.8,75.8h-36.2c-0.8,0-1.5,0.6-1.6,1.4l-2.4,13.7H205c0.8,0,1.4,0.7,1.3,1.5l-3.9,22.3H228
		c0.8,0,1.5-0.6,1.6-1.4l2-11.4l4.4-24.8C236.1,76.4,235.6,75.8,234.8,75.8"/>
	<path class="st0" d="M132.8,275.8H80.6c-1.1,0-2.1,0.9-2.3,2l-3.1,17.8L69.1,330c-0.2,1.1,0.5,2,1.6,2h14.8l3.4-19.2
		c0.2-1.1,1.2-2,2.3-2l37.4,0l5.8-33C134.7,276.7,133.9,275.8,132.8,275.8"/>
	<path class="st0" d="M143.5,310.8l-14.8,0l-37.4,0c-1.1,0-2.1,0.9-2.3,2L85.5,332l-5.8,33c-0.2,1.1,0.5,2,1.6,2l23.1,0l3.5-20
		c0.2-1,1.1-1.8,2.2-1.8h29.3l5.7-32.4C145.3,311.7,144.5,310.8,143.5,310.8"/>
	<path class="st0" d="M205,401h-40.2c-0.8,0-1.6,0.7-1.8,1.5l-3.6,20.7l-3.4,19.5c-0.1,0.8,0.4,1.5,1.3,1.5l35.9,0l4-22.5
		c0.1-0.8,0.9-1.4,1.6-1.4h4.4l3.2-17.9C206.4,401.7,205.8,401,205,401"/>
	<path class="st0" d="M234.8,420.4h-36.2c-0.8,0-1.5,0.6-1.6,1.4l-4,22.5l-2.4,13.7c-0.1,0.8,0.4,1.4,1.1,1.4h34.7l4.4-24.9
		c0.1-0.7,0.8-1.2,1.4-1.2h1.6l2-11.4C236.1,421,235.6,420.4,234.8,420.4"/>
	<path class="st0" d="M158.3,138h-48.2c-1,0-2,0.8-2.1,1.8l-5,28.3h40.5c1.1,0,1.8,0.9,1.6,2l-3.5,19.8h7.6c1,0,2-0.8,2.1-1.8
		l5-28.6l3.5-19.6C160,138.8,159.3,138,158.3,138"/>
	<path class="st0" d="M143.5,168.1H91.2c-1.1,0-2.1,0.9-2.3,2l-5.8,33h49.8c1.1,0,1.8,0.9,1.6,2l-3.4,19.2h2.5c1.1,0,2.1-0.9,2.3-2
		l5.7-32.4l3.5-19.8C145.3,169,144.5,168.1,143.5,168.1"/>
	<path class="st0" d="M264.5,433.1l-30.5,0h-1.6c-0.7,0-1.3,0.5-1.4,1.2l-4.4,24.9l-1.3,7.2c-0.1,0.7,0.3,1.2,1,1.2h32.1
		c0.7,0,1.3-0.5,1.4-1.2l5.7-32.1C265.6,433.7,265.1,433.1,264.5,433.1"/>
	<path class="st0" d="M129.3,239.4H77c-1.1,0-2.1,0.9-2.3,2l-3.1,17.8l-6.1,34.4c-0.2,1.1,0.5,2,1.6,2h8l3.1-17.8
		c0.2-1.1,1.2-2,2.3-2h44.2l6.1-34.4C131.1,240.3,130.3,239.4,129.3,239.4"/>
	<path class="st0" d="M132.8,203.1H80.6c-1.1,0-2.1,0.9-2.3,2l-9.2,52.2c-0.2,1.1,0.5,2,1.6,2h0.9l3.1-17.8c0.2-1.1,1.2-2,2.3-2
		h51.4l2.7-15.2l3.4-19.2C134.7,204,133.9,203.1,132.8,203.1"/>
	<path class="st0" d="M179.1,375.6h-44.2c-0.9,0-1.8,0.8-2,1.7l-3.5,19.8l-4.3,24.4c-0.2,0.9,0.5,1.7,1.4,1.7h32.8l3.6-20.7
		c0.1-0.8,1-1.5,1.8-1.5h11.5l4.2-23.7C180.6,376.4,180,375.6,179.1,375.6"/>
	<path class="st0" d="M158.3,345.2h-48.2c-1,0-2,0.8-2.2,1.8l-3.5,20l-5,28.3c-0.2,1,0.5,1.8,1.5,1.8l28.5,0l3.5-19.8
		c0.2-0.9,1-1.7,2-1.7h19.9l5-28.6C160,346,159.3,345.2,158.3,345.2"/>
	<path class="st0" d="M179.1,111.9h-44.2c-0.9,0-1.8,0.8-2,1.7l-4.3,24.4h29.7c1,0,1.7,0.8,1.5,1.8l-3.5,19.6h14.4
		c0.9,0,1.8-0.8,2-1.7l4.2-23.7l3.6-20.5C180.6,112.7,180,111.9,179.1,111.9"/>
	<path class="st0" d="M205,90.9h-40.2c-0.8,0-1.6,0.7-1.8,1.5l-3.4,19.5h19.5c0.9,0,1.5,0.8,1.4,1.7l-3.6,20.5h20.5
		c0.8,0,1.6-0.7,1.8-1.5l3.2-17.9l3.9-22.3C206.4,91.6,205.8,90.9,205,90.9"/>
	<path class="st0" d="M407.9,142.2h12.1c0.3,0,0.5-0.2,0.5-0.5l2.1-12c0-0.3-0.1-0.5-0.4-0.5h-12c-0.3,0-0.5,0.2-0.5,0.5l-2.1,12
		C407.5,142,407.6,142.2,407.9,142.2"/>
	<path class="st0" d="M366.5,84.5h-20.1c-0.4,0-0.8,0.3-0.9,0.8l-3.5,20.1c-0.1,0.4,0.2,0.8,0.6,0.8h20.1c0.4,0,0.8-0.3,0.9-0.8
		l3.5-20.1C367.2,84.8,366.9,84.5,366.5,84.5"/>
	<path class="st0" d="M365,429h-20.1c-0.4,0-0.8,0.3-0.9,0.8l-3.5,20.1c-0.1,0.4,0.2,0.8,0.6,0.8h20.1c0.4,0,0.8-0.3,0.9-0.8
		l3.5-20.1C365.7,429.4,365.4,429,365,429"/>
	<path class="st0" d="M332.4,437.5h-24.1c-0.5,0-1,0.4-1.1,0.9l-4.2,24.1c-0.1,0.5,0.2,0.9,0.8,0.9h24.1c0.5,0,1-0.4,1.1-0.9
		l4.3-24.1C333.3,437.9,332.9,437.5,332.4,437.5"/>
	<path class="st0" d="M396.3,103.8h-16.1c-0.3,0-0.7,0.3-0.7,0.6l-2.8,16.1c-0.1,0.3,0.2,0.6,0.5,0.6h16.1c0.3,0,0.7-0.3,0.7-0.6
		l2.8-16.1C396.9,104.1,396.7,103.8,396.3,103.8"/>
	<path class="st0" d="M335.4,71.7h-24.1c-0.5,0-1,0.4-1.1,0.9L306,96.7c-0.1,0.5,0.2,0.9,0.8,0.9h24.1c0.5,0,1-0.4,1.1-0.9l4.2-24.1
		C336.2,72.1,335.9,71.7,335.4,71.7"/>
	<path class="st0" d="M394.9,413.9h-16.1c-0.3,0-0.7,0.3-0.7,0.6l-2.8,16.1c-0.1,0.3,0.2,0.6,0.5,0.6h16.1c0.3,0,0.7-0.3,0.7-0.6
		l2.8-16.1C395.4,414.2,395.2,413.9,394.9,413.9"/>
	<path class="st0" d="M420.7,392.9h-12.1c-0.3,0-0.5,0.2-0.5,0.5l-2.1,12.1c0,0.3,0.1,0.5,0.4,0.5h12.1c0.3,0,0.5-0.2,0.5-0.5
		l2.1-12.1C421.2,393.1,421,392.9,420.7,392.9"/>
	<path class="st1" d="M229.2,101.9h2.4l4.4-24.8c0.1-0.8-0.4-1.4-1.1-1.4h-2.3l-4.4,24.9C228.1,101.4,228.5,101.9,229.2,101.9"/>
	<path class="st1" d="M121.7,293.6l3.1-17.8H80.6c-1.1,0-2.1,0.9-2.3,2l-3.1,17.8h44.2C120.4,295.6,121.5,294.7,121.7,293.6"/>
	<path class="st1" d="M125.3,330l3.4-19.2l-37.4,0c-1.1,0-2.1,0.9-2.3,2L85.5,332h37.4C124,332,125.1,331.1,125.3,330"/>
	<path class="st1" d="M172.7,421.5l3.6-20.5h-11.5c-0.8,0-1.6,0.7-1.8,1.5l-3.6,20.7h11.3C171.6,423.2,172.5,422.4,172.7,421.5"/>
	<path class="st1" d="M199.1,442.7l3.9-22.3h-4.4c-0.8,0-1.5,0.6-1.6,1.4l-4,22.5h4.3C198.2,444.2,199,443.5,199.1,442.7"/>
	<path class="st1" d="M126.5,159.4h29.8l3.5-19.6c0.2-1-0.5-1.8-1.5-1.8h-29.7l-3.5,19.8C125,158.7,125.6,159.4,126.5,159.4"/>
	<path class="st1" d="M100.9,189.9h40.6l3.5-19.8c0.2-1.1-0.5-2-1.6-2H103l-3.5,20C99.3,189,99.9,189.9,100.9,189.9"/>
	<path class="st1" d="M229.6,457.9l4.4-24.8h-1.6c-0.7,0-1.3,0.5-1.4,1.2l-4.4,24.9h1.5C228.7,459.3,229.4,458.6,229.6,457.9"/>
	<path class="st1" d="M125.3,257.3l3.1-17.8H77c-1.1,0-2.1,0.9-2.3,2l-3.1,17.8h51.4C124,259.2,125.1,258.4,125.3,257.3"/>
	<path class="st1" d="M81.3,224.3h49.8l3.4-19.2c0.2-1.1-0.5-2-1.6-2H83.1l-3.4,19.2C79.5,223.4,80.2,224.3,81.3,224.3"/>
	<path class="st1" d="M151.3,395.2l3.5-19.6h-19.9c-0.9,0-1.8,0.8-2,1.7l-3.5,19.8h19.7C150.2,397.1,151.1,396.2,151.3,395.2"/>
	<path class="st1" d="M135.9,365l3.5-19.8h-29.3c-1,0-2,0.8-2.1,1.8l-3.5,20h29.1C134.6,367,135.7,366.1,135.9,365"/>
	<path class="st1" d="M157.2,134.1h19.7l3.6-20.5c0.2-0.9-0.5-1.7-1.4-1.7h-19.5l-3.6,20.7C155.8,133.4,156.3,134.1,157.2,134.1"/>
	<path class="st1" d="M191.8,114.7h10.5l3.9-22.3c0.1-0.8-0.4-1.5-1.3-1.5h-10.3l-4,22.5C190.5,114.1,191.1,114.7,191.8,114.7"/>
	<path class="st2" d="M305.9,301.4c-4.9,27.5-21.3,48.3-59,48.3c-34.3,0-52.8-22.3-46.8-52l12.5-65c5.7-29.4,26-47.6,58.2-47.6
		c30.4,0,53.5,19.5,47.6,50.4L305.9,301.4z M289,234.9c2.6-12.5-4.4-23.4-20.3-23.4c-15.3,0-24.7,9.6-27,21.6l-13,66.5
		c-2.3,13.8,5.2,23.9,19.7,23.9c16.4,0,25.5-8.6,27.5-21.3L289,234.9z"/>
	<path class="st2" d="M400.8,348.2c-2.3,0-3.6-0.8-3.6-2.9l-1.3-29.9H352c-1.8,4.4-8.6,20-12.5,29.9c-1,2.3-2.6,2.9-4.7,2.9h-22.1
		c-3.9,0-3.9-1.8-2.9-4.9l67.6-151.8c1-2.1,2.9-3.6,5.7-3.6h29.4c2.3,0,4.7,0.5,4.9,3.6l9.1,151.5c0.3,3.4-1.3,4.9-3.9,5.2H400.8z
		 M379.5,251.6l-16.6,39.8h31.7c-0.5-13.5-1.3-28.1-1.6-41.6l-0.5-29.1h-0.8C387.6,231,383.9,241.2,379.5,251.6"/>
	<path class="st2" d="M541.9,213.6h-34.8l-25.7,130.4c-0.5,3.1-2.1,4.2-5.2,4.2h-20c-2.9,0-4.7-1-4.2-3.9l25.7-130.7h-33
		c-3.1,0-4.2-1.3-3.4-4.7l3.4-16.6c0.3-2.9,1.8-4.4,4.9-4.4h97.2c2.9,0,3.6,1.6,3.1,4.2l-3.1,16.9
		C546.1,211.8,545,213.6,541.9,213.6"/>
	<path class="st2" d="M572.4,343.5c-0.8,2.9-2.6,4.7-5.5,4.7h-20c-2.9,0-4.4-1.8-4.2-4.4l29.4-151.5c0.8-2.9,2.6-4.4,5.5-4.4h20
		c2.6,0,4.4,1.3,4.2,4.2L572.4,343.5z"/>
	<g>
		<path class="st2" d="M592.6,330.3c1.5,0,3,0.4,4.4,1.2c1.4,0.8,2.5,1.9,3.3,3.3s1.2,2.9,1.2,4.5c0,1.6-0.4,3.1-1.2,4.5
			c-0.8,1.4-1.9,2.5-3.3,3.3c-1.4,0.8-2.9,1.2-4.5,1.2s-3.1-0.4-4.5-1.2c-1.4-0.8-2.5-1.9-3.3-3.3c-0.8-1.4-1.2-2.9-1.2-4.5
			c0-1.6,0.4-3.1,1.2-4.5s1.9-2.5,3.3-3.3C589.6,330.6,591.1,330.3,592.6,330.3z M592.7,332c-1.2,0-2.4,0.3-3.6,0.9
			c-1.1,0.6-2,1.5-2.7,2.7c-0.7,1.2-1,2.4-1,3.6c0,1.3,0.3,2.5,1,3.6c0.6,1.1,1.5,2,2.7,2.7c1.1,0.6,2.3,1,3.6,1
			c1.3,0,2.5-0.3,3.6-1s2-1.5,2.7-2.7c0.6-1.1,1-2.3,1-3.6c0-1.3-0.3-2.5-1-3.6c-0.7-1.2-1.5-2-2.7-2.7
			C595.1,332.3,593.9,332,592.7,332z M588.6,344v-9.5h1.9c1.8,0,2.8,0,3,0c0.6,0.1,1.1,0.2,1.5,0.4c0.4,0.2,0.7,0.5,0.9,0.9
			c0.2,0.4,0.4,0.9,0.4,1.4c0,0.7-0.2,1.3-0.7,1.8c-0.4,0.5-1.1,0.8-1.9,0.9c0.3,0.1,0.5,0.2,0.7,0.4c0.2,0.1,0.4,0.4,0.6,0.7
			c0.1,0.1,0.3,0.5,0.7,1.2l1.1,1.9h-2.4l-0.8-1.5c-0.5-1-1-1.7-1.3-2c-0.4-0.3-0.8-0.4-1.3-0.4h-0.5v3.9H588.6z M590.5,338.6h0.8
			c1.1,0,1.8,0,2.1-0.1c0.3-0.1,0.5-0.2,0.6-0.5c0.2-0.2,0.2-0.5,0.2-0.7c0-0.3-0.1-0.5-0.2-0.7c-0.2-0.2-0.4-0.4-0.7-0.4
			c-0.3-0.1-1-0.1-2.1-0.1h-0.8V338.6z"/>
	</g>
</g>
</svg>
